<?xml version="1.0" encoding="utf-8" ?>
<svg baseProfile="full" height="500px" version="1.1" width="800px" xmlns="http://www.w3.org/2000/svg" xmlns:ev="http://www.w3.org/2001/xml-events" xmlns:xlink="http://www.w3.org/1999/xlink"><defs><marker id="arrow" markerHeight="10" markerWidth="10" orient="auto" refX="10" refY="5"><path d="M 0 0 L 10 5 L 0 10 z" fill="#f15" /></marker></defs><rect fill="#111" height="50" rx="10" ry="10" stroke="#f15" stroke-width="2" width="160" x="320" y="25" /><text fill="white" font-size="12px" text-anchor="middle" x="400" y="55">HelenCore Operator</text><rect fill="#111" height="50" rx="10" ry="10" stroke="#f15" stroke-width="2" width="160" x="20" y="225" /><text fill="white" font-size="12px" text-anchor="middle" x="100" y="255">Strategist Assistant</text><rect fill="#111" height="50" rx="10" ry="10" stroke="#f15" stroke-width="2" width="160" x="160" y="225" /><text fill="white" font-size="12px" text-anchor="middle" x="240" y="255">Creative Technologist Assistant</text><rect fill="#111" height="50" rx="10" ry="10" stroke="#f15" stroke-width="2" width="160" x="320" y="225" /><text fill="white" font-size="12px" text-anchor="middle" x="400" y="255">Dark Humor Critic Assistant</text><rect fill="#111" height="50" rx="10" ry="10" stroke="#f15" stroke-width="2" width="160" x="480" y="225" /><text fill="white" font-size="12px" text-anchor="middle" x="560" y="255">Executive Whisperer Assistant</text><rect fill="#111" height="50" rx="10" ry="10" stroke="#f15" stroke-width="2" width="160" x="620" y="225" /><text fill="white" font-size="12px" text-anchor="middle" x="700" y="255">Ritual Systems Designer Assistant</text><line marker-end="url(#arrow)" stroke="#f15" stroke-width="2" x1="400" x2="100" y1="75" y2="225" /><line marker-end="url(#arrow)" stroke="#f15" stroke-width="2" x1="400" x2="240" y1="75" y2="225" /><line marker-end="url(#arrow)" stroke="#f15" stroke-width="2" x1="400" x2="400" y1="75" y2="225" /><line marker-end="url(#arrow)" stroke="#f15" stroke-width="2" x1="400" x2="560" y1="75" y2="225" /><line marker-end="url(#arrow)" stroke="#f15" stroke-width="2" x1="400" x2="700" y1="75" y2="225" /></svg>